<svg width="304" height="312" viewBox="0 0 304 312" fill="none" xmlns="http://www.w3.org/2000/svg">
<path d="M210.375 23.4403L190.926 6.56177L169.089 6.56177V76.7884M210.375 107.833L169.089 76.7884M210.375 107.833L268.721 83.4193M210.375 107.833L224.705 161.784L193.997 168.415M169.089 76.7884L169.089 134.055M246.884 62.3211L268.721 83.4193M268.721 83.4193V105.723M193.997 168.415L169.089 134.055M193.997 168.415L210.375 216.338M169.089 134.055L169.089 232.613M246.884 211.214L279.298 227.188L281.687 256.123L260.532 265.165L230.847 241.655M246.884 211.214L210.375 216.338M246.884 211.214L230.847 241.655M210.375 216.338L169.089 232.613M210.375 216.338L202.527 247.683M169.089 232.613V294.702L183.761 304.046M230.847 241.655L202.527 247.683M210.375 287.77L183.761 304.046M202.527 247.683L183.761 304.046" stroke="#355CF7" stroke-width="5"/>
<path d="M275.056 153.229L264.209 172.373M275.078 200.344L264.209 172.373M264.209 172.373L245.843 189.424" stroke="#355CF7" stroke-width="5"/>
<path d="M207.655 36.436L214.102 53.5704M214.102 53.5704L242.413 43.8753M214.102 53.5704L203.501 80.3793" stroke="#355CF7" stroke-width="5"/>
<ellipse cx="64.47" cy="32.0357" rx="8.54422" ry="7.66071" fill="#355CF7"/>
<ellipse cx="93.9866" cy="23.6785" rx="8.54422" ry="7.66071" fill="#355CF7"/>
<ellipse cx="137.485" cy="7.66071" rx="8.54422" ry="7.66071" fill="#355CF7"/>
<ellipse cx="82.3362" cy="64.0714" rx="8.54422" ry="7.66071" fill="#355CF7"/>
<ellipse cx="91.6555" cy="107.946" rx="8.54422" ry="7.66071" fill="#355CF7"/>
<ellipse cx="138.262" cy="79.3929" rx="8.54422" ry="7.66071" fill="#355CF7"/>
<ellipse cx="136.707" cy="137.893" rx="8.54422" ry="7.66071" fill="#355CF7"/>
<ellipse cx="107.967" cy="169.232" rx="8.54422" ry="7.66071" fill="#355CF7"/>
<ellipse cx="100.978" cy="247.929" rx="8.54422" ry="7.66071" fill="#355CF7"/>
<ellipse cx="136.707" cy="294.589" rx="8.54422" ry="7.66071" fill="#355CF7"/>
<ellipse cx="120.396" cy="304.339" rx="8.54422" ry="7.66071" fill="#355CF7"/>
<ellipse cx="41.1682" cy="266.036" rx="8.54422" ry="7.66071" fill="#355CF7"/>
<ellipse cx="8.54422" cy="204.75" rx="8.54422" ry="7.66071" fill="#355CF7"/>
<ellipse cx="71.4612" cy="242.357" rx="8.54422" ry="7.66071" fill="#355CF7"/>
<ellipse cx="93.2093" cy="289.018" rx="8.54422" ry="7.66071" fill="#355CF7"/>
<ellipse cx="66.0237" cy="293.893" rx="8.54422" ry="7.66071" fill="#355CF7"/>
<ellipse cx="19.4182" cy="256.982" rx="8.54422" ry="7.66071" fill="#355CF7"/>
<ellipse cx="138.262" cy="233.304" rx="8.54422" ry="7.66071" fill="#355CF7"/>
<ellipse cx="95.5393" cy="218.678" rx="8.54422" ry="7.66071" fill="#355CF7"/>
<ellipse cx="118.842" cy="59.8929" rx="8.54422" ry="7.66071" fill="#355CF7"/>
<ellipse cx="112.628" cy="8.35725" rx="8.54422" ry="7.66071" fill="#355CF7"/>
<ellipse cx="11.6507" cy="140.679" rx="8.54422" ry="7.66071" fill="#355CF7"/>
<ellipse cx="11.6507" cy="140.679" rx="8.54422" ry="7.66071" fill="#355CF7"/>
<ellipse cx="34.177" cy="109.339" rx="8.54422" ry="7.66071" fill="#355CF7"/>
<ellipse cx="57.4788" cy="213.804" rx="8.54422" ry="7.66071" fill="#355CF7"/>
<ellipse cx="76.8977" cy="164.357" rx="8.54422" ry="7.66071" fill="#355CF7"/>
<ellipse cx="20.9729" cy="228.429" rx="8.54422" ry="7.66071" fill="#355CF7"/>
<ellipse cx="50.4895" cy="187.339" rx="8.54422" ry="7.66071" fill="#355CF7"/>
<ellipse cx="17.8645" cy="169.929" rx="8.54422" ry="7.66071" fill="#355CF7"/>
<ellipse cx="53.595" cy="63.3751" rx="8.54422" ry="7.66071" fill="#355CF7"/>
<ellipse cx="34.177" cy="86.3572" rx="8.54422" ry="7.66071" fill="#355CF7"/>
<path d="M92.7048 23.4403L113.159 6.56177L136.126 6.56177V76.7884M92.7048 23.4403L118.183 57.4987M92.7048 23.4403L63.6376 30.9753L54.3074 62.3211M118.183 57.4987L136.126 76.7884M118.183 57.4987L80.8626 62.3211M92.7048 107.833L136.126 76.7884M92.7048 107.833L31.3407 83.4193M92.7048 107.833L77.6329 161.784M92.7048 107.833L80.8626 62.3211M136.126 76.7884L136.126 134.055M54.3074 62.3211L31.3407 83.4193M54.3074 62.3211L80.8626 62.3211M31.3407 83.4193L31.3407 105.723L8.37402 140.083L17.7042 168.415M17.7042 168.415L47.4891 183.485M17.7042 168.415L8.37402 201.87L20.2162 227.188M47.4891 183.485L77.6329 161.784M47.4891 183.485L54.3074 211.214M77.6329 161.784L109.93 168.415M109.93 168.415L136.126 134.055M109.93 168.415L92.7048 216.338M136.126 134.055L136.126 232.613M20.2162 227.188L54.3074 211.214M20.2162 227.188L17.7042 256.123L39.9532 265.165M54.3074 211.214L92.7048 216.338M54.3074 211.214L71.1735 241.655M92.7048 216.338L136.126 232.613M92.7048 216.338L100.958 247.683M136.126 232.613V294.702L120.695 304.046M39.9532 265.165L71.1735 241.655M39.9532 265.165L61.8433 291.688L92.7048 287.77M71.1735 241.655L92.7048 287.77M71.1735 241.655L100.958 247.683M92.7048 287.77L120.695 304.046M100.958 247.683L120.695 304.046" stroke="#355CF7" stroke-width="5"/>
<ellipse cx="170.562" cy="8.35725" rx="8.54422" ry="7.66071" fill="#355CF7"/>
<ellipse cx="169.634" cy="77.168" rx="8.54422" ry="7.66071" fill="#355CF7"/>
<ellipse cx="283.967" cy="256.982" rx="8.54422" ry="7.66071" fill="#355CF7"/>
<ellipse cx="231.925" cy="243.054" rx="8.54422" ry="7.66071" fill="#355CF7"/>
<ellipse cx="259.887" cy="266.732" rx="8.54422" ry="7.66071" fill="#355CF7"/>
<ellipse cx="172.115" cy="236.089" rx="8.54422" ry="7.66071" fill="#355CF7"/>
<ellipse cx="183.767" cy="303.643" rx="8.54422" ry="7.66071" fill="#355CF7"/>
<ellipse cx="201.631" cy="249.321" rx="8.54422" ry="7.66071" fill="#355CF7"/>
<ellipse cx="210.176" cy="217.982" rx="8.54422" ry="7.66071" fill="#355CF7"/>
<ellipse cx="247.461" cy="189.429" rx="8.54422" ry="7.66071" fill="#355CF7"/>
<ellipse cx="169.008" cy="293.893" rx="8.54422" ry="7.66071" fill="#355CF7"/>
<ellipse cx="210.176" cy="289.018" rx="8.54422" ry="7.66071" fill="#355CF7"/>
<ellipse cx="280.86" cy="227.732" rx="8.54422" ry="7.66071" fill="#355CF7"/>
<ellipse cx="249.791" cy="213.804" rx="8.54422" ry="7.66071" fill="#355CF7"/>
<ellipse cx="275.422" cy="200.571" rx="8.54422" ry="7.66071" fill="#355CF7"/>
<ellipse cx="272.316" cy="157.393" rx="8.54422" ry="7.66071" fill="#355CF7"/>
<path d="M276.594 123L240.998 146.901" stroke="#355CF7" stroke-width="5"/>
<ellipse cx="8.47117" cy="7.74142" rx="8.47117" ry="7.74142" transform="matrix(0.963847 0.266456 -0.325201 0.945645 237.46 136.153)" fill="#355CF7"/>
<ellipse cx="6.48246" cy="5.92402" rx="6.48246" ry="5.92402" transform="matrix(0.963847 0.266456 -0.325201 0.945645 269.746 117.294)" fill="#355CF7"/>
<ellipse cx="8.47117" cy="7.74142" rx="8.47117" ry="7.74142" transform="matrix(0.963847 0.266456 -0.325201 0.945645 245.228 57.8035)" fill="#355CF7"/>
<ellipse cx="196.971" cy="170.625" rx="8.54422" ry="7.66071" fill="#355CF7"/>
<ellipse cx="211.731" cy="41.7857" rx="8.54422" ry="7.66071" fill="#355CF7"/>
<ellipse cx="240.782" cy="44.7161" rx="8.54422" ry="7.66071" fill="#355CF7"/>
<ellipse cx="206.291" cy="82.8751" rx="8.54422" ry="7.66071" fill="#355CF7"/>
<ellipse cx="169.783" cy="137.893" rx="8.54422" ry="7.66071" fill="#355CF7"/>
<ellipse cx="211.731" cy="109.339" rx="8.54422" ry="7.66071" fill="#355CF7"/>
<ellipse cx="268.432" cy="110.036" rx="8.54422" ry="7.66071" fill="#355CF7"/>
<ellipse cx="268.432" cy="86.3572" rx="8.54422" ry="7.66071" fill="#355CF7"/>
<ellipse cx="191.534" cy="9.05354" rx="8.54422" ry="7.66071" fill="#355CF7"/>
<ellipse cx="211.731" cy="23.6785" rx="8.54422" ry="7.66071" fill="#355CF7"/>
<ellipse cx="225.711" cy="161.571" rx="8.54422" ry="7.66071" fill="#355CF7"/>
</svg>
